<svg width="620" height="460" viewBox="0 0 620 460" fill="none" xmlns="http://www.w3.org/2000/svg">
  <defs>
    <linearGradient id="gradAbout" x1="0" x2="1" y1="0" y2="1">
      <stop offset="0%" stop-color="#06b6d4"></stop>
      <stop offset="100%" stop-color="#3b82f6"></stop>
    </linearGradient>
  </defs>

  <rect width="620" height="460" rx="24" fill="#f9fafc"></rect>

  <!-- Decorative circles -->
  <circle cx="500" cy="120" r="90" fill="url(#gradAbout)" opacity="0.18"></circle>
  <circle cx="150" cy="360" r="130" fill="url(#gradAbout)" opacity="0.1"></circle>

  <!-- Globe -->
  <circle cx="310" cy="200" r="85" stroke="url(#gradAbout)" stroke-width="3" fill="white"></circle>
  <path d="M230 200h160M310 120v160" stroke="url(#gradAbout)" stroke-width="2" opacity="0.6"></path>
  <ellipse cx="310" cy="200" rx="65" ry="28" stroke="url(#gradAbout)" stroke-width="2" opacity="0.6"></ellipse>
  <ellipse cx="310" cy="200" rx="65" ry="28" stroke="url(#gradAbout)" stroke-width="2" opacity="0.6" transform="rotate(90 310 200)"></ellipse>

  <!-- People / Team Nodes -->
  <circle cx="160" cy="140" r="26" fill="#fff" stroke="url(#gradAbout)" stroke-width="3"></circle>
  <circle cx="460" cy="260" r="26" fill="#fff" stroke="url(#gradAbout)" stroke-width="3"></circle>
  <circle cx="460" cy="140" r="26" fill="#fff" stroke="url(#gradAbout)" stroke-width="3"></circle>
  <circle cx="160" cy="260" r="26" fill="#fff" stroke="url(#gradAbout)" stroke-width="3"></circle>

  <!-- Connectors -->
  <line x1="187" y1="140" x2="285" y2="170" stroke="url(#gradAbout)" stroke-width="3" opacity="0.6"></line>
  <line x1="187" y1="260" x2="285" y2="230" stroke="url(#gradAbout)" stroke-width="3" opacity="0.6"></line>
  <line x1="335" y1="170" x2="435" y2="140" stroke="url(#gradAbout)" stroke-width="3" opacity="0.6"></line>
  <line x1="335" y1="230" x2="435" y2="260" stroke="url(#gradAbout)" stroke-width="3" opacity="0.6"></line>

</svg>
