<?xml version="1.0" encoding="UTF-8"?>
<!DOCTYPE svg PUBLIC "-//W3C//DTD SVG 1.1//EN" "http://www.w3.org/Graphics/SVG/1.1/DTD/svg11.dtd">
<svg xmlns="http://www.w3.org/2000/svg" version="1.1" width="1536px" height="1024px" style="shape-rendering:geometricPrecision; text-rendering:geometricPrecision; image-rendering:optimizeQuality; fill-rule:evenodd; clip-rule:evenodd" xmlns:xlink="http://www.w3.org/1999/xlink">
<g><path style="opacity:1" fill="#fdfdfb" d="M -0.5,-0.5 C 511.5,-0.5 1023.5,-0.5 1535.5,-0.5C 1535.5,340.833 1535.5,682.167 1535.5,1023.5C 1023.5,1023.5 511.5,1023.5 -0.5,1023.5C -0.5,682.167 -0.5,340.833 -0.5,-0.5 Z"/></g>
<g><path style="opacity:1" fill="#29a3ac" d="M 539.5,299.5 C 533.137,322.704 518.97,339.371 497,349.5C 498.987,363.402 499.654,377.402 499,391.5C 496.398,395.212 492.898,396.378 488.5,395C 480.271,388.591 471.937,382.425 463.5,376.5C 454.318,367.822 444.651,359.656 434.5,352C 388.167,351.667 341.833,351.333 295.5,351C 266.08,345.246 248.246,327.746 242,298.5C 241.333,268.5 241.333,238.5 242,208.5C 249.075,180.425 266.575,162.592 294.5,155C 358.167,154.333 421.833,154.333 485.5,155C 513.778,161.277 531.611,178.444 539,206.5C 540.825,237.483 540.992,268.483 539.5,299.5 Z"/></g>
<g><path style="opacity:1" fill="#fcfcfa" d="M 304.5,233.5 C 299.283,231.067 297.283,227.067 298.5,221.5C 299.254,218.909 300.921,217.076 303.5,216C 360.5,215.333 417.5,215.333 474.5,216C 479.426,218.353 481.26,222.186 480,227.5C 478.833,230 477,231.833 474.5,233C 417.834,233.5 361.168,233.667 304.5,233.5 Z"/></g>
<g><path style="opacity:1" fill="#1c939d" d="M 304.5,233.5 C 361.168,233.667 417.834,233.5 474.5,233C 477,231.833 478.833,230 480,227.5C 481.26,222.186 479.426,218.353 474.5,216C 417.5,215.333 360.5,215.333 303.5,216C 300.921,217.076 299.254,218.909 298.5,221.5C 297.427,220.749 297.26,219.749 298,218.5C 299.731,216.383 301.898,214.883 304.5,214C 360.833,213.333 417.167,213.333 473.5,214C 480.34,216.513 482.84,221.346 481,228.5C 479.833,231 478,232.833 475.5,234C 417.763,234.831 360.763,234.664 304.5,233.5 Z"/></g>
<g><path style="opacity:1" fill="#fdfcfb" d="M 304.5,263.5 C 346.168,263.333 387.835,263.5 429.5,264C 437.5,269.333 437.5,274.667 429.5,280C 387.5,280.667 345.5,280.667 303.5,280C 296.657,274.052 296.991,268.552 304.5,263.5 Z"/></g>
<g><path style="opacity:1" fill="#2db682" d="M 1106.5,403.5 C 1095.56,401.387 1084.73,398.387 1074,394.5C 1060.17,398.667 1046.33,402.833 1032.5,407C 1025.88,408.88 1022.55,406.38 1022.5,399.5C 1024,392.172 1025.5,384.839 1027,377.5C 1028.19,369.526 1028.52,361.526 1028,353.5C 1015.42,331.916 1009.92,308.582 1011.5,283.5C 1020.59,224.248 1054.59,189.082 1113.5,178C 1157.16,174.423 1192.66,189.59 1220,223.5C 1244.6,260.426 1248.27,299.426 1231,340.5C 1212.16,377.654 1181.99,398.821 1140.5,404C 1129.15,404.66 1117.82,404.493 1106.5,403.5 Z"/></g>
<g><path style="opacity:1" fill="#fafbf9" d="M 1118.5,213.5 C 1159.45,213.381 1186.28,232.714 1199,271.5C 1205.12,303.49 1195.62,329.656 1170.5,350C 1144.18,367.18 1117.01,368.68 1089,354.5C 1076.88,358.071 1064.71,361.405 1052.5,364.5C 1054.62,351.801 1056.95,339.134 1059.5,326.5C 1042.7,289.097 1049.37,256.597 1079.5,229C 1091.28,220.578 1104.28,215.412 1118.5,213.5 Z"/></g>
<g><path style="opacity:1" fill="#2cb681" d="M 1119.5,226.5 C 1156.11,226.954 1178.61,244.954 1187,280.5C 1189.68,310.305 1177.85,332.138 1151.5,346C 1130.13,354.797 1109.96,352.631 1091,339.5C 1084.55,341.573 1078.05,343.573 1071.5,345.5C 1071.44,338.795 1072.44,332.128 1074.5,325.5C 1063.45,305.637 1061.62,284.97 1069,263.5C 1079.76,242.906 1096.6,230.573 1119.5,226.5 Z"/></g>
<g><path style="opacity:1" fill="#fafbf9" d="M 1098.5,252.5 C 1101.36,252.055 1103.86,252.722 1106,254.5C 1110.66,260.455 1112.99,267.121 1113,274.5C 1110.71,277.104 1108.88,279.937 1107.5,283C 1113.02,294.187 1121.52,302.354 1133,307.5C 1134.22,307.138 1135.39,306.638 1136.5,306C 1140.87,296.124 1147.21,294.791 1155.5,302C 1165.86,308.686 1165.86,315.686 1155.5,323C 1147.83,326.333 1140.17,326.333 1132.5,323C 1112.64,315.665 1098.14,302.499 1089,283.5C 1083.47,270.273 1086.63,259.94 1098.5,252.5 Z"/></g>
<g><path style="opacity:1" fill="#cee7f0" d="M 1011.5,283.5 C 1009.92,308.582 1015.42,331.916 1028,353.5C 1028.52,361.526 1028.19,369.526 1027,377.5C 1025.5,384.839 1024,392.172 1022.5,399.5C 1022.55,406.38 1025.88,408.88 1032.5,407C 1046.33,402.833 1060.17,398.667 1074,394.5C 1084.73,398.387 1095.56,401.387 1106.5,403.5C 1105.76,403.369 1105.09,403.536 1104.5,404C 1125.72,420.634 1147.05,437.301 1168.5,454C 1196.83,477.501 1219.33,505.667 1236,538.5C 1252.9,577.983 1255.07,618.317 1242.5,659.5C 1237.49,659.334 1232.49,659.501 1227.5,660C 1232.68,660.174 1237.68,660.674 1242.5,661.5C 1197.8,660.934 1167.63,681.601 1152,723.5C 1148.42,737.668 1147.59,752.001 1149.5,766.5C 1148.78,768.091 1147.78,769.591 1146.5,771C 1122.78,789.851 1097.78,806.685 1071.5,821.5C 1071.51,815.129 1071.01,808.796 1070,802.5C 1069.73,797.997 1068.89,794.331 1067.5,791.5C 1062.23,752.764 1052.4,715.097 1038,678.5C 1033.43,668.351 1028.09,658.684 1022,649.5C 1013.31,637.485 1001.81,629.319 987.5,625C 968.44,617.706 949.44,610.54 930.5,603.5C 951.657,602.24 968.99,593.574 982.5,577.5C 995.334,562.343 1001.67,544.676 1001.5,524.5C 1001.26,506.539 997.093,489.539 989,473.5C 979.505,455.84 969.505,438.507 959,421.5C 951.028,406.253 945.028,390.253 941,373.5C 936.205,342.851 928.871,312.851 919,283.5C 900.196,240.699 868.029,213.866 822.5,203C 781.858,192.789 742.858,197.122 705.5,216C 671.622,236.901 648.456,266.401 636,304.5C 628.176,332.794 620.51,361.128 613,389.5C 601.365,413.441 588.698,436.774 575,459.5C 563.061,480.643 557.727,503.31 559,527.5C 563.453,564.952 583.62,589.452 619.5,601C 624.102,602.122 628.768,602.622 633.5,602.5C 633.389,603.117 633.056,603.617 632.5,604C 606.074,611.715 580.408,621.382 555.5,633C 544.175,641.827 535.341,652.66 529,665.5C 515.487,693.875 505.82,723.542 500,754.5C 493.183,790.712 488.35,827.046 485.5,863.5C 485.649,862.448 485.483,861.448 485,860.5C 484.798,862.256 484.298,863.922 483.5,865.5C 431.489,843.315 389.989,808.648 359,761.5C 351.797,749.43 345.964,736.763 341.5,723.5C 346.454,724.057 349.121,723.724 349.5,722.5C 394.929,716.576 426.762,692.576 445,650.5C 460.983,600.794 449.816,558.294 411.5,523C 393.418,509.033 373.084,500.866 350.5,498.5C 351.873,498.657 353.207,498.49 354.5,498C 351.447,497.821 348.447,497.321 345.5,496.5C 363.545,466.311 385.545,439.144 411.5,415C 427.06,400.936 443.06,387.436 459.5,374.5C 460.622,375.63 461.956,376.297 463.5,376.5C 471.937,382.425 480.271,388.591 488.5,395C 492.898,396.378 496.398,395.212 499,391.5C 499.654,377.402 498.987,363.402 497,349.5C 518.97,339.371 533.137,322.704 539.5,299.5C 539.369,300.239 539.536,300.906 540,301.5C 540.333,300.167 540.667,298.833 541,297.5C 541.168,289.147 541.668,280.813 542.5,272.5C 570.725,245.094 601.392,220.927 634.5,200C 679.311,172.794 727.977,158.294 780.5,156.5C 857.653,157.171 922.487,185.504 975,241.5C 986.312,256.307 998.478,270.307 1011.5,283.5 Z"/></g>
<g><path style="opacity:1" fill="#332822" d="M 982.5,577.5 C 968.99,593.574 951.657,602.24 930.5,603.5C 920.82,601.272 911.486,598.272 902.5,594.5C 903.315,593.571 904.148,592.571 905,591.5C 905.689,592.357 906.522,593.023 907.5,593.5C 924.822,591.838 941.156,586.505 956.5,577.5C 967.592,569.924 975.426,559.924 980,547.5C 980.96,552.482 980.127,557.149 977.5,561.5C 974.289,566.089 970.955,570.589 967.5,575C 967.833,575.333 968.167,575.667 968.5,576C 965.999,577.673 963.666,579.507 961.5,581.5C 962.391,582.59 963.391,582.59 964.5,581.5C 964.998,582.603 965.331,583.603 965.5,584.5C 966.551,583.115 967.884,582.115 969.5,581.5C 970.506,581.938 970.506,582.604 969.5,583.5C 970.328,584.415 971.328,585.081 972.5,585.5C 975.818,582.683 978.985,579.683 982,576.5C 982.399,576.728 982.565,577.062 982.5,577.5 Z"/></g>
<g><path style="opacity:1" fill="#3e2d25" d="M 982.5,577.5 C 982.565,577.062 982.399,576.728 982,576.5C 978.985,579.683 975.818,582.683 972.5,585.5C 971.328,585.081 970.328,584.415 969.5,583.5C 970.506,582.604 970.506,581.938 969.5,581.5C 967.884,582.115 966.551,583.115 965.5,584.5C 965.331,583.603 964.998,582.603 964.5,581.5C 963.391,582.59 962.391,582.59 961.5,581.5C 963.666,579.507 965.999,577.673 968.5,576C 968.167,575.667 967.833,575.333 967.5,575C 970.955,570.589 974.289,566.089 977.5,561.5C 980.127,557.149 980.96,552.482 980,547.5C 975.426,559.924 967.592,569.924 956.5,577.5C 941.156,586.505 924.822,591.838 907.5,593.5C 906.522,593.023 905.689,592.357 905,591.5C 904.148,592.571 903.315,593.571 902.5,594.5C 894.426,592.031 886.426,589.364 878.5,586.5C 878.158,585.662 877.492,585.328 876.5,585.5C 874.363,584.213 872.03,583.379 869.5,583C 861.964,575.632 854.631,568.132 847.5,560.5C 853.119,564.947 858.619,569.613 864,574.5C 872.332,570.168 878.665,563.835 883,555.5C 888.505,544.147 891.671,532.147 892.5,519.5C 892.196,516.614 891.529,513.948 890.5,511.5C 893.294,503.995 895.627,496.329 897.5,488.5C 898.29,489.609 898.79,490.942 899,492.5C 908.326,487.493 916.326,480.826 923,472.5C 925.787,465.723 927.62,458.723 928.5,451.5C 928.461,449.048 927.794,447.048 926.5,445.5C 929.19,438.912 931.19,432.079 932.5,425C 934.278,422.868 934.611,420.368 933.5,417.5C 937.139,401.809 934.805,387.143 926.5,373.5C 925.583,372.873 924.583,372.539 923.5,372.5C 920.688,370.592 917.688,368.925 914.5,367.5C 915.821,354.735 915.821,342.069 914.5,329.5C 914.5,328.833 914.5,328.167 914.5,327.5C 914.571,311.745 911.405,296.411 905,281.5C 903.643,278.102 901.81,275.102 899.5,272.5C 894.172,264.542 888.339,256.876 882,249.5C 858.932,228.049 831.765,215.383 800.5,211.5C 801.552,211.649 802.552,211.483 803.5,211C 790.542,209.456 777.542,209.123 764.5,210C 759.219,210.538 754.219,211.705 749.5,213.5C 698.406,227.428 666.239,260.095 653,311.5C 651.558,318.096 650.724,324.763 650.5,331.5C 649.687,343.425 649.187,355.425 649,367.5C 648.283,368.044 647.783,368.711 647.5,369.5C 636.498,374.141 630.331,382.474 629,394.5C 626.646,412.027 629.312,428.693 637,444.5C 640.785,450.125 645.618,454.458 651.5,457.5C 643.724,454.9 637.891,449.9 634,442.5C 633.28,444.112 633.446,445.612 634.5,447C 632.298,456.759 630.298,466.593 628.5,476.5C 628.673,485.881 628.673,495.215 628.5,504.5C 629.33,511.159 630.164,517.826 631,524.5C 631.642,526.762 632.475,528.929 633.5,531C 633.043,531.414 632.709,531.914 632.5,532.5C 637.963,542.597 644.296,552.097 651.5,561C 652.448,561.483 653.448,561.649 654.5,561.5C 654.5,562.833 654.5,564.167 654.5,565.5C 655.93,565.421 657.264,565.754 658.5,566.5C 658.833,566 659.167,565.5 659.5,565C 649.189,551.962 643.022,537.128 641,520.5C 640.333,507.167 640.333,493.833 641,480.5C 642.203,474.686 643.87,469.019 646,463.5C 644.894,489.947 648.227,515.947 656,541.5C 663.01,558.687 674.177,572.52 689.5,583C 688.944,583.383 688.611,583.883 688.5,584.5C 670.662,591.668 652.329,597.668 633.5,602.5C 628.768,602.622 624.102,602.122 619.5,601C 583.62,589.452 563.453,564.952 559,527.5C 557.727,503.31 563.061,480.643 575,459.5C 588.698,436.774 601.365,413.441 613,389.5C 620.51,361.128 628.176,332.794 636,304.5C 648.456,266.401 671.622,236.901 705.5,216C 742.858,197.122 781.858,192.789 822.5,203C 868.029,213.866 900.196,240.699 919,283.5C 928.871,312.851 936.205,342.851 941,373.5C 945.028,390.253 951.028,406.253 959,421.5C 969.505,438.507 979.505,455.84 989,473.5C 997.093,489.539 1001.26,506.539 1001.5,524.5C 1001.67,544.676 995.334,562.343 982.5,577.5 Z"/></g>
<g><path style="opacity:1" fill="#302721" d="M 947.5,502.5 C 951.803,523.672 948.303,543.672 937,562.5C 926.182,577.353 911.682,585.186 893.5,586C 891.871,586.585 890.371,587.419 889,588.5C 886.755,587.863 884.588,587.03 882.5,586C 884.929,585.549 885.096,584.715 883,583.5C 882.086,584.654 881.253,584.487 880.5,583C 897.299,577.821 912.466,568.988 926,556.5C 938.905,540.92 946.071,522.92 947.5,502.5 Z"/></g>
<g><path style="opacity:1" fill="#2f2620" d="M 890.5,511.5 C 891.529,513.948 892.196,516.614 892.5,519.5C 891.671,532.147 888.505,544.147 883,555.5C 878.665,563.835 872.332,570.168 864,574.5C 858.619,569.613 853.119,564.947 847.5,560.5C 844.233,558.573 841.233,556.239 838.5,553.5C 838.5,553.167 838.5,552.833 838.5,552.5C 839.568,549.925 841.235,547.758 843.5,546C 859.531,539.621 873.697,530.455 886,518.5C 887.026,515.761 888.526,513.428 890.5,511.5 Z"/></g>
<g><path style="opacity:1" fill="#2b5573" d="M 900.5,473.5 C 899.975,478.6 898.975,483.6 897.5,488.5C 895.627,496.329 893.294,503.995 890.5,511.5C 888.526,513.428 887.026,515.761 886,518.5C 873.697,530.455 859.531,539.621 843.5,546C 841.235,547.758 839.568,549.925 838.5,552.5C 829.419,556.949 819.752,558.782 809.5,558C 802.277,555.398 799.277,550.231 800.5,542.5C 801.813,537.013 805.147,533.18 810.5,531C 819.448,529.711 828.448,528.878 837.5,528.5C 838.625,534.092 841.958,535.926 847.5,534C 860.692,529.335 871.858,521.835 881,511.5C 884.262,506.21 886.428,500.543 887.5,494.5C 890.238,488.552 891.905,482.219 892.5,475.5C 893.29,474.391 893.79,473.058 894,471.5C 894.333,473.5 894.667,475.5 895,477.5C 895.333,477.167 895.667,476.833 896,476.5C 896.308,477.308 896.808,477.975 897.5,478.5C 898.79,476.343 899.624,474.01 900,471.5C 900.464,472.094 900.631,472.761 900.5,473.5 Z"/></g>
<g><path style="opacity:1" fill="#302721" d="M 678.5,433.5 C 681.089,470.679 696.423,501.345 724.5,525.5C 725.487,528.768 725.82,532.102 725.5,535.5C 724.513,540.305 724.179,545.305 724.5,550.5C 724.5,551.5 724.5,552.5 724.5,553.5C 720.762,555.697 717.429,558.364 714.5,561.5C 705.833,569.167 697.167,576.833 688.5,584.5C 688.611,583.883 688.944,583.383 689.5,583C 674.177,572.52 663.01,558.687 656,541.5C 648.227,515.947 644.894,489.947 646,463.5C 643.87,469.019 642.203,474.686 641,480.5C 640.333,493.833 640.333,507.167 641,520.5C 643.022,537.128 649.189,551.962 659.5,565C 659.167,565.5 658.833,566 658.5,566.5C 657.264,565.754 655.93,565.421 654.5,565.5C 654.5,564.167 654.5,562.833 654.5,561.5C 653.448,561.649 652.448,561.483 651.5,561C 644.296,552.097 637.963,542.597 632.5,532.5C 632.709,531.914 633.043,531.414 633.5,531C 632.475,528.929 631.642,526.762 631,524.5C 630.164,517.826 629.33,511.159 628.5,504.5C 628.673,495.215 628.673,485.881 628.5,476.5C 630.298,466.593 632.298,456.759 634.5,447C 633.446,445.612 633.28,444.112 634,442.5C 637.891,449.9 643.724,454.9 651.5,457.5C 653.833,457.5 656.167,457.5 658.5,457.5C 660.584,459.077 662.584,460.91 664.5,463C 670.437,463.904 674.104,461.404 675.5,455.5C 676.326,454.987 676.992,453.653 677.5,451.5C 678.192,452.025 678.692,452.692 679,453.5C 678.764,448.2 678.264,442.867 677.5,437.5C 677.511,435.955 677.844,434.622 678.5,433.5 Z"/></g>
<g><path style="opacity:1" fill="#2f2620" d="M 879.5,454.5 C 880.29,455.609 880.79,456.942 881,458.5C 881.667,455.833 882.333,455.833 883,458.5C 884.202,460.553 884.536,462.553 884,464.5C 884.333,464.833 884.667,465.167 885,465.5C 886.204,464.529 886.704,463.529 886.5,462.5C 890.068,467.289 891.568,472.622 891,478.5C 889.766,483.84 888.599,489.173 887.5,494.5C 886.428,500.543 884.262,506.21 881,511.5C 871.858,521.835 860.692,529.335 847.5,534C 841.958,535.926 838.625,534.092 837.5,528.5C 837.343,527.127 837.51,525.793 838,524.5C 860.262,506.351 874.096,483.018 879.5,454.5 Z"/></g>
<g><path style="opacity:1" fill="#f6ab6f" d="M 883.5,367.5 C 885.483,381.42 885.983,395.42 885,409.5C 883.575,424.565 881.742,439.565 879.5,454.5C 874.096,483.018 860.262,506.351 838,524.5C 837.51,525.793 837.343,527.127 837.5,528.5C 828.448,528.878 819.448,529.711 810.5,531C 805.147,533.18 801.813,537.013 800.5,542.5C 799.539,544.265 799.205,546.265 799.5,548.5C 778.921,553.551 759.921,550.051 742.5,538C 737.15,534.992 732.15,531.492 727.5,527.5C 726.669,534.476 726.169,541.476 726,548.5C 725.501,544.179 725.334,539.846 725.5,535.5C 725.82,532.102 725.487,528.768 724.5,525.5C 696.423,501.345 681.089,470.679 678.5,433.5C 678.795,431.265 678.461,429.265 677.5,427.5C 676.584,412.843 676.417,398.176 677,383.5C 677.847,377.416 679.013,371.416 680.5,365.5C 682.546,359.075 685.879,353.409 690.5,348.5C 690.938,348.435 691.272,348.601 691.5,349C 687.239,353.025 684.739,357.858 684,363.5C 692.414,357.707 701.247,352.54 710.5,348C 740.847,336.826 770.18,323.492 798.5,308C 807.267,302.734 814.6,295.901 820.5,287.5C 823.359,296.219 827.526,304.219 833,311.5C 843.97,323.471 855.304,335.138 867,346.5C 872.037,353.932 877.537,360.932 883.5,367.5 Z"/></g>
<g><path style="opacity:1" fill="#cf683e" d="M 744.5,475.5 C 755.37,475.541 766.204,476.208 777,477.5C 789.79,476.002 802.623,475.335 815.5,475.5C 813.5,477.833 811.5,480.167 809.5,482.5C 789.994,483.173 770.661,483.507 751.5,483.5C 765.334,497.548 781.334,500.381 799.5,492C 803,489.331 806.333,486.498 809.5,483.5C 812.167,483.5 814.833,483.5 817.5,483.5C 805.35,500.165 789.016,506.999 768.5,504C 757.444,500.826 749.111,494.326 743.5,484.5C 745.96,484.301 748.293,483.635 750.5,482.5C 748.477,480.147 746.477,477.814 744.5,475.5 Z"/></g>
<g><path style="opacity:1" fill="#fbf3ec" d="M 809.5,482.5 C 809.5,482.833 809.5,483.167 809.5,483.5C 806.333,486.498 803,489.331 799.5,492C 781.334,500.381 765.334,497.548 751.5,483.5C 770.661,483.507 789.994,483.173 809.5,482.5 Z"/></g>
<g><path style="opacity:1" fill="#633020" d="M 744.5,475.5 C 746.477,477.814 748.477,480.147 750.5,482.5C 748.293,483.635 745.96,484.301 743.5,484.5C 740.32,482.318 738.986,479.484 739.5,476C 741.134,475.506 742.801,475.34 744.5,475.5 Z"/></g>
<g><path style="opacity:1" fill="#613123" d="M 817.5,483.5 C 814.833,483.5 812.167,483.5 809.5,483.5C 809.5,483.167 809.5,482.833 809.5,482.5C 811.5,480.167 813.5,477.833 815.5,475.5C 818.275,473.944 820.608,474.444 822.5,477C 821.015,479.317 819.348,481.484 817.5,483.5 Z"/></g>
<g><path style="opacity:1" fill="#302620" d="M 926.5,445.5 C 927.794,447.048 928.461,449.048 928.5,451.5C 927.62,458.723 925.787,465.723 923,472.5C 916.326,480.826 908.326,487.493 899,492.5C 898.79,490.942 898.29,489.609 897.5,488.5C 898.975,483.6 899.975,478.6 900.5,473.5C 901.388,470.517 902.054,467.35 902.5,464C 902.684,462.624 903.351,461.791 904.5,461.5C 911.239,461.464 916.573,458.797 920.5,453.5C 921.329,454.332 922.162,453.999 923,452.5C 924.193,450.114 925.36,447.78 926.5,445.5 Z"/></g>
<g><path style="opacity:1" fill="#dd7244" d="M 771.5,395.5 C 775.14,408.634 773.64,421.301 767,433.5C 763.043,442.751 765.876,448.585 775.5,451C 780.5,451.667 785.5,451.667 790.5,451C 799.253,446.831 799.587,448.498 791.5,456C 787,459.428 782,460.762 776.5,460C 769.104,457.065 762.937,452.565 758,446.5C 757.809,439.871 760.143,434.204 765,429.5C 770.438,418.808 772.605,407.474 771.5,395.5 Z"/></g>
<g><path style="opacity:1" fill="#4789b2" d="M 647.5,369.5 C 650.303,390.982 652.803,412.649 655,434.5C 655.965,441.29 657.465,447.957 659.5,454.5C 659.315,455.584 658.982,456.584 658.5,457.5C 656.167,457.5 653.833,457.5 651.5,457.5C 645.618,454.458 640.785,450.125 637,444.5C 629.312,428.693 626.646,412.027 629,394.5C 630.331,382.474 636.498,374.141 647.5,369.5 Z"/></g>
<g><path style="opacity:1" fill="#274c6c" d="M 650.5,331.5 C 652.833,331.5 655.167,331.5 657.5,331.5C 656.843,341.497 656.676,351.497 657,361.5C 661.951,368.343 664.951,376.009 666,384.5C 668.184,402.637 671.184,420.637 675,438.5C 675.499,444.157 675.666,449.824 675.5,455.5C 674.104,461.404 670.437,463.904 664.5,463C 662.584,460.91 660.584,459.077 658.5,457.5C 658.982,456.584 659.315,455.584 659.5,454.5C 657.465,447.957 655.965,441.29 655,434.5C 652.803,412.649 650.303,390.982 647.5,369.5C 647.783,368.711 648.283,368.044 649,367.5C 649.187,355.425 649.687,343.425 650.5,331.5 Z"/></g>
<g><path style="opacity:1" fill="#3f1f16" d="M 923.5,372.5 C 924.583,372.539 925.583,372.873 926.5,373.5C 934.805,387.143 937.139,401.809 933.5,417.5C 934.611,420.368 934.278,422.868 932.5,425C 931.19,432.079 929.19,438.912 926.5,445.5C 925.36,447.78 924.193,450.114 923,452.5C 922.162,453.999 921.329,454.332 920.5,453.5C 924.195,447.595 927.028,441.262 929,434.5C 931.371,422.941 932.871,411.275 933.5,399.5C 933.714,389.137 930.381,380.137 923.5,372.5 Z"/></g>
<g><path style="opacity:1" fill="#264c6b" d="M 914.5,329.5 C 915.821,342.069 915.821,354.735 914.5,367.5C 910.155,396.433 906.488,425.6 903.5,455C 903.566,457.255 903.899,459.422 904.5,461.5C 903.351,461.791 902.684,462.624 902.5,464C 902.054,467.35 901.388,470.517 900.5,473.5C 900.631,472.761 900.464,472.094 900,471.5C 899.624,474.01 898.79,476.343 897.5,478.5C 896.808,477.975 896.308,477.308 896,476.5C 895.667,476.833 895.333,477.167 895,477.5C 894.667,475.5 894.333,473.5 894,471.5C 893.79,473.058 893.29,474.391 892.5,475.5C 891.18,469.037 889.346,462.704 887,456.5C 886.333,452.167 886.333,447.833 887,443.5C 891.505,420.296 895.172,396.963 898,373.5C 898.921,367.581 902.255,363.914 908,362.5C 908.601,352.153 908.434,341.819 907.5,331.5C 910.388,332.01 912.721,331.344 914.5,329.5 Z"/></g>
<g><path style="opacity:1" fill="#4689b2" d="M 914.5,367.5 C 917.688,368.925 920.688,370.592 923.5,372.5C 930.381,380.137 933.714,389.137 933.5,399.5C 932.871,411.275 931.371,422.941 929,434.5C 927.028,441.262 924.195,447.595 920.5,453.5C 916.573,458.797 911.239,461.464 904.5,461.5C 903.899,459.422 903.566,457.255 903.5,455C 906.488,425.6 910.155,396.433 914.5,367.5 Z"/></g>
<g><path style="opacity:1" fill="#441a0e" d="M 899.5,272.5 C 901.81,275.102 903.643,278.102 905,281.5C 911.405,296.411 914.571,311.745 914.5,327.5C 913.366,308.099 908.366,289.766 899.5,272.5 Z"/></g>
<g><path style="opacity:1" fill="#3f2e26" d="M 797.5,224.5 C 828.09,227.18 853.923,239.514 875,261.5C 877.08,264.065 878.913,266.732 880.5,269.5C 891.474,287.278 899.807,305.612 905.5,324.5C 906.268,326.715 906.935,329.048 907.5,331.5C 908.434,341.819 908.601,352.153 908,362.5C 902.255,363.914 898.921,367.581 898,373.5C 895.172,396.963 891.505,420.296 887,443.5C 886.333,447.833 886.333,452.167 887,456.5C 889.346,462.704 891.18,469.037 892.5,475.5C 891.905,482.219 890.238,488.552 887.5,494.5C 888.599,489.173 889.766,483.84 891,478.5C 891.568,472.622 890.068,467.289 886.5,462.5C 886.704,463.529 886.204,464.529 885,465.5C 884.667,465.167 884.333,464.833 884,464.5C 884.536,462.553 884.202,460.553 883,458.5C 882.333,455.833 881.667,455.833 881,458.5C 880.79,456.942 880.29,455.609 879.5,454.5C 881.742,439.565 883.575,424.565 885,409.5C 885.983,395.42 885.483,381.42 883.5,367.5C 881.943,358.052 878.443,349.386 873,341.5C 863.703,330.534 854.036,319.868 844,309.5C 836.877,301.59 831.543,292.59 828,282.5C 826.939,277.896 826.273,273.229 826,268.5C 808.421,287.876 787.588,302.709 763.5,313C 748.583,319.861 733.583,326.528 718.5,333C 708.622,337.434 699.288,342.6 690.5,348.5C 685.879,353.409 682.546,359.075 680.5,365.5C 680.565,365.062 680.399,364.728 680,364.5C 677.882,369.971 676.549,375.638 676,381.5C 675.172,397.861 675.505,414.194 677,430.5C 677.483,429.552 677.649,428.552 677.5,427.5C 678.461,429.265 678.795,431.265 678.5,433.5C 677.844,434.622 677.511,435.955 677.5,437.5C 678.264,442.867 678.764,448.2 679,453.5C 678.692,452.692 678.192,452.025 677.5,451.5C 676.992,453.653 676.326,454.987 675.5,455.5C 675.666,449.824 675.499,444.157 675,438.5C 671.184,420.637 668.184,402.637 666,384.5C 664.951,376.009 661.951,368.343 657,361.5C 656.676,351.497 656.843,341.497 657.5,331.5C 658.167,328.833 658.833,326.167 659.5,323.5C 659.369,324.239 659.536,324.906 660,325.5C 663.182,311.16 668.015,297.493 674.5,284.5C 684.425,264.908 699.092,249.908 718.5,239.5C 718.56,240.043 718.893,240.376 719.5,240.5C 732.122,233.904 745.455,229.404 759.5,227C 758.906,226.536 758.239,226.369 757.5,226.5C 758.209,225.596 759.209,225.263 760.5,225.5C 761.964,226.16 763.631,226.493 765.5,226.5C 776.33,225.955 786.997,225.288 797.5,224.5 Z"/></g>
<g><path style="opacity:1" fill="#f29260" d="M 698.5,421.5 C 705.827,420.859 712.827,422.025 719.5,425C 728.905,434.28 728.571,443.28 718.5,452C 710.465,455.966 702.132,456.633 693.5,454C 689.094,452.391 685.094,450.225 681.5,447.5C 681.121,442.703 681.621,438.036 683,433.5C 685.853,430.948 688.353,428.115 690.5,425C 693.025,423.281 695.692,422.114 698.5,421.5 Z"/></g>
<g><path style="opacity:1" fill="#f29260" d="M 846.5,420.5 C 855.08,419.428 863.08,420.928 870.5,425C 879.658,439.032 875.992,448.032 859.5,452C 847.808,455.225 838.975,451.725 833,441.5C 831.633,430.705 836.133,423.705 846.5,420.5 Z"/></g>
<g><path style="opacity:1" fill="#372721" d="M 824.5,379.5 C 838.109,377.64 846.275,383.306 849,396.5C 845.225,391.887 840.725,388.22 835.5,385.5C 835.167,385.833 834.833,386.167 834.5,386.5C 838.315,393.019 838.482,399.686 835,406.5C 826.823,413.257 821.823,411.257 820,400.5C 819.785,396.715 819.619,393.048 819.5,389.5C 815.869,391.632 812.702,394.299 810,397.5C 811.718,389.098 816.552,383.098 824.5,379.5 Z"/></g>
<g><path style="opacity:1" fill="#140f13" d="M 680.5,365.5 C 679.013,371.416 677.847,377.416 677,383.5C 676.417,398.176 676.584,412.843 677.5,427.5C 677.649,428.552 677.483,429.552 677,430.5C 675.505,414.194 675.172,397.861 676,381.5C 676.549,375.638 677.882,369.971 680,364.5C 680.399,364.728 680.565,365.062 680.5,365.5 Z"/></g>
<g><path style="opacity:1" fill="#372822" d="M 723.5,380.5 C 736.37,378.999 744.537,384.332 748,396.5C 744.613,393.447 740.947,390.78 737,388.5C 737.543,393.09 737.543,397.757 737,402.5C 734.704,410.988 730.038,412.655 723,407.5C 719.308,401.493 718.808,395.326 721.5,389C 716.324,389.487 712.824,392.32 711,397.5C 711.744,389.354 715.911,383.688 723.5,380.5 Z"/></g>
<g><path style="opacity:1" fill="#392924" d="M 713.5,352.5 C 728.428,350.851 742.261,353.851 755,361.5C 755.667,363.5 755.667,365.5 755,367.5C 751.256,368.626 747.423,368.793 743.5,368C 736.047,365.409 728.38,363.909 720.5,363.5C 712.244,363.531 704.744,365.864 698,370.5C 699.717,361.611 704.883,355.611 713.5,352.5 Z"/></g>
<g><path style="opacity:1" fill="#3b2b25" d="M 830.5,351.5 C 839.279,350.648 847.613,352.148 855.5,356C 860.864,359.902 863.697,365.069 864,371.5C 858.964,367.262 853.131,364.762 846.5,364C 837.581,362.839 828.914,363.839 820.5,367C 815.833,367.667 811.167,367.667 806.5,367C 804.876,363.794 805.542,361.128 808.5,359C 815.576,355.365 822.909,352.865 830.5,351.5 Z"/></g>
<g><path style="opacity:1" fill="#e38657" d="M 883.5,367.5 C 877.537,360.932 872.037,353.932 867,346.5C 855.304,335.138 843.97,323.471 833,311.5C 827.526,304.219 823.359,296.219 820.5,287.5C 814.6,295.901 807.267,302.734 798.5,308C 770.18,323.492 740.847,336.826 710.5,348C 701.247,352.54 692.414,357.707 684,363.5C 684.739,357.858 687.239,353.025 691.5,349C 691.272,348.601 690.938,348.435 690.5,348.5C 699.288,342.6 708.622,337.434 718.5,333C 733.583,326.528 748.583,319.861 763.5,313C 787.588,302.709 808.421,287.876 826,268.5C 826.273,273.229 826.939,277.896 828,282.5C 831.543,292.59 836.877,301.59 844,309.5C 854.036,319.868 863.703,330.534 873,341.5C 878.443,349.386 881.943,358.052 883.5,367.5 Z"/></g>
<g><path style="opacity:1" fill="#3c88bb" d="M 800.5,211.5 C 831.765,215.383 858.932,228.049 882,249.5C 888.339,256.876 894.172,264.542 899.5,272.5C 908.366,289.766 913.366,308.099 914.5,327.5C 914.5,328.167 914.5,328.833 914.5,329.5C 912.721,331.344 910.388,332.01 907.5,331.5C 906.935,329.048 906.268,326.715 905.5,324.5C 901.197,304.235 892.864,285.902 880.5,269.5C 878.913,266.732 877.08,264.065 875,261.5C 853.923,239.514 828.09,227.18 797.5,224.5C 785.136,224.248 772.803,224.582 760.5,225.5C 759.209,225.263 758.209,225.596 757.5,226.5C 743.634,228.268 730.634,232.602 718.5,239.5C 699.092,249.908 684.425,264.908 674.5,284.5C 666.969,296.412 661.969,309.412 659.5,323.5C 658.833,326.167 658.167,328.833 657.5,331.5C 655.167,331.5 652.833,331.5 650.5,331.5C 650.724,324.763 651.558,318.096 653,311.5C 666.239,260.095 698.406,227.428 749.5,213.5C 766.397,210.432 783.397,209.766 800.5,211.5 Z"/></g>
<g><path style="opacity:1" fill="#461c13" d="M 880.5,269.5 C 892.864,285.902 901.197,304.235 905.5,324.5C 899.807,305.612 891.474,287.278 880.5,269.5 Z"/></g>
<g><path style="opacity:1" fill="#421b12" d="M 674.5,284.5 C 668.015,297.493 663.182,311.16 660,325.5C 659.536,324.906 659.369,324.239 659.5,323.5C 661.969,309.412 666.969,296.412 674.5,284.5 Z"/></g>
<g><path style="opacity:1" fill="#513528" d="M 781.5,259.5 C 783.527,259.338 785.527,259.505 787.5,260C 753.754,272.819 722.754,290.153 694.5,312C 704.178,301.656 714.511,291.989 725.5,283C 743.154,272.671 761.821,264.837 781.5,259.5 Z"/></g>
<g><path style="opacity:1" fill="#461d14" d="M 757.5,226.5 C 758.239,226.369 758.906,226.536 759.5,227C 745.455,229.404 732.122,233.904 719.5,240.5C 718.893,240.376 718.56,240.043 718.5,239.5C 730.634,232.602 743.634,228.268 757.5,226.5 Z"/></g>
<g><path style="opacity:1" fill="#461708" d="M 797.5,224.5 C 786.997,225.288 776.33,225.955 765.5,226.5C 763.631,226.493 761.964,226.16 760.5,225.5C 772.803,224.582 785.136,224.248 797.5,224.5 Z"/></g>
<g><path style="opacity:1" fill="#481607" d="M 800.5,211.5 C 783.397,209.766 766.397,210.432 749.5,213.5C 754.219,211.705 759.219,210.538 764.5,210C 777.542,209.123 790.542,209.456 803.5,211C 802.552,211.483 801.552,211.649 800.5,211.5 Z"/></g>
<g><path style="opacity:1" fill="#de8255" d="M 800.5,542.5 C 799.277,550.231 802.277,555.398 809.5,558C 819.752,558.782 829.419,556.949 838.5,552.5C 838.5,552.833 838.5,553.167 838.5,553.5C 838.5,556.167 838.5,558.833 838.5,561.5C 827.82,569.332 816.487,576.165 804.5,582C 780.95,590.463 759.283,587.13 739.5,572C 734.699,568.201 730.199,564.034 726,559.5C 725.819,556.305 725.319,553.305 724.5,550.5C 724.179,545.305 724.513,540.305 725.5,535.5C 725.334,539.846 725.501,544.179 726,548.5C 726.169,541.476 726.669,534.476 727.5,527.5C 732.15,531.492 737.15,534.992 742.5,538C 759.921,550.051 778.921,553.551 799.5,548.5C 799.205,546.265 799.539,544.265 800.5,542.5 Z"/></g>
<g><path style="opacity:1" fill="#1c687d" d="M 724.5,553.5 C 724.067,558.833 723.567,564.166 723,569.5C 718.946,574.942 715.946,580.942 714,587.5C 712.644,598.785 712.144,610.119 712.5,621.5C 711.487,603.576 711.487,584.409 712.5,564C 713.381,563.292 714.047,562.458 714.5,561.5C 717.429,558.364 720.762,555.697 724.5,553.5 Z"/></g>
<g><path style="opacity:1" fill="#f6ab6f" d="M 724.5,550.5 C 725.319,553.305 725.819,556.305 726,559.5C 730.199,564.034 734.699,568.201 739.5,572C 759.283,587.13 780.95,590.463 804.5,582C 816.487,576.165 827.82,569.332 838.5,561.5C 838.998,564.487 839.498,567.487 840,570.5C 843.711,575.59 846.044,581.257 847,587.5C 847.874,607.996 846.707,628.33 843.5,648.5C 826.169,663.326 807.836,676.826 788.5,689C 782.761,693.577 777.095,693.577 771.5,689C 751.814,675.814 733.147,661.314 715.5,645.5C 714.398,637.511 713.398,629.511 712.5,621.5C 712.144,610.119 712.644,598.785 714,587.5C 715.946,580.942 718.946,574.942 723,569.5C 723.567,564.166 724.067,558.833 724.5,553.5C 724.5,552.5 724.5,551.5 724.5,550.5 Z"/></g>
<g><path style="opacity:1" fill="#3686bb" d="M 350.5,498.5 C 373.084,500.866 393.418,509.033 411.5,523C 449.816,558.294 460.983,600.794 445,650.5C 426.762,692.576 394.929,716.576 349.5,722.5C 297.447,722.572 260.281,699.238 238,652.5C 220.432,603.274 230.599,560.774 268.5,525C 292.32,505.672 319.653,496.839 350.5,498.5 Z"/></g>
<g><path style="opacity:1" fill="#fafaf8" d="M 303.5,548.5 C 307.426,548.047 310.592,549.38 313,552.5C 317.446,559.058 321.113,566.058 324,573.5C 324.579,580.343 321.912,585.676 316,589.5C 315.333,592.167 315.333,594.833 316,597.5C 324.059,614.226 336.226,627.059 352.5,636C 354.5,636.667 356.5,636.667 358.5,636C 362.491,631.009 367.491,627.509 373.5,625.5C 382.204,628.704 390.038,633.371 397,639.5C 396.656,651.206 390.823,659.04 379.5,663C 369.509,665.372 359.843,664.372 350.5,660C 322.806,647.64 302.306,627.807 289,600.5C 278.013,578.422 282.846,561.089 303.5,548.5 Z"/></g>
<g><path style="opacity:1" fill="#1d8492" d="M 878.5,586.5 C 886.426,589.364 894.426,592.031 902.5,594.5C 911.486,598.272 920.82,601.272 930.5,603.5C 949.44,610.54 968.44,617.706 987.5,625C 1001.81,629.319 1013.31,637.485 1022,649.5C 1028.09,658.684 1033.43,668.351 1038,678.5C 1052.4,715.097 1062.23,752.764 1067.5,791.5C 1070.77,816.071 1072.6,840.738 1073,865.5C 1062.58,870.643 1051.74,874.81 1040.5,878C 1023.63,882.741 1006.63,886.908 989.5,890.5C 987.385,848.786 983.885,807.119 979,765.5C 977.478,743.631 978.811,721.964 983,700.5C 987.129,682.345 991.463,664.345 996,646.5C 979.747,682.173 972.247,719.673 973.5,759C 974.026,783.195 975.192,807.362 977,831.5C 977.667,850.5 977.667,869.5 977,888.5C 976.691,889.766 976.191,890.933 975.5,892C 975.728,892.399 976.062,892.565 976.5,892.5C 941.894,898.864 906.894,903.197 871.5,905.5C 868.686,904.835 865.686,904.502 862.5,904.5C 840.519,906.039 818.519,906.539 796.5,906C 827.734,868.688 856.901,829.855 884,789.5C 900.471,763.06 914.971,735.56 927.5,707C 916.617,698.609 905.617,690.442 894.5,682.5C 900.991,677.754 907.657,673.254 914.5,669C 917.297,667.279 919.631,665.113 921.5,662.5C 908.223,636.421 893.556,611.255 877.5,587C 877.728,586.601 878.062,586.435 878.5,586.5 Z"/></g>
<g><path style="opacity:1" fill="#2db783" d="M 1242.5,661.5 C 1289.43,666.929 1317.27,692.929 1326,739.5C 1329.07,787.055 1308.57,819.555 1264.5,837C 1226.26,846.918 1194.09,837.085 1168,807.5C 1158.59,795.337 1152.42,781.67 1149.5,766.5C 1147.59,752.001 1148.42,737.668 1152,723.5C 1167.63,681.601 1197.8,660.934 1242.5,661.5 Z"/></g>
<g><path style="opacity:1" fill="#f8faf8" d="M 1233.5,708.5 C 1257.14,707.23 1272.31,717.897 1279,740.5C 1281.26,762.822 1272.09,778.322 1251.5,787C 1240.87,789.547 1230.53,788.714 1220.5,784.5C 1213.82,786.172 1207.15,787.839 1200.5,789.5C 1200.87,782.131 1202.21,774.964 1204.5,768C 1194.44,744.187 1200.44,725.52 1222.5,712C 1226.25,710.691 1229.92,709.525 1233.5,708.5 Z"/></g>
<g><path style="opacity:1" fill="#2db681" d="M 1232.5,716.5 C 1251.67,714.495 1264.5,722.495 1271,740.5C 1274.03,759.774 1266.53,772.941 1248.5,780C 1238.87,782.512 1229.87,781.012 1221.5,775.5C 1217.49,777.411 1213.49,778.411 1209.5,778.5C 1210.65,774.883 1211.65,771.216 1212.5,767.5C 1201.73,743.41 1208.39,726.41 1232.5,716.5 Z"/></g>
<g><path style="opacity:1" fill="#f9fbf9" d="M 1223.5,729.5 C 1224.87,729.343 1226.21,729.51 1227.5,730C 1229.76,733.184 1231.76,736.517 1233.5,740C 1232.24,741.845 1231.24,743.845 1230.5,746C 1233.35,751.682 1237.68,755.849 1243.5,758.5C 1245.83,756.5 1248.17,754.5 1250.5,752.5C 1254.09,753.875 1257.26,755.875 1260,758.5C 1259.54,764.786 1256.04,767.786 1249.5,767.5C 1232.9,764.896 1222.23,755.563 1217.5,739.5C 1218.28,735.394 1220.28,732.061 1223.5,729.5 Z"/></g>
<g><path style="opacity:1" fill="#1d8492" d="M 838.5,553.5 C 841.233,556.239 844.233,558.573 847.5,560.5C 854.631,568.132 861.964,575.632 869.5,583C 872.03,583.379 874.363,584.213 876.5,585.5C 875.047,585.929 873.381,586.096 871.5,586C 886.085,609.835 900.418,633.835 914.5,658C 905.264,664.906 895.764,671.406 886,677.5C 880.909,674.211 875.743,671.378 870.5,669C 887.643,681.975 904.643,695.142 921.5,708.5C 907.709,738.093 891.875,766.427 874,793.5C 864.912,806.676 855.579,819.676 846,832.5C 826.31,856.689 806.81,881.022 787.5,905.5C 780.524,906.664 773.524,906.831 766.5,906C 767.464,903.353 766.964,900.853 765,898.5C 738.21,866.245 712.877,832.911 689,798.5C 669.987,770.129 653.487,740.296 639.5,709C 643.136,705.034 647.136,701.368 651.5,698C 665.842,688.494 679.842,678.494 693.5,668C 687.026,670.911 680.692,674.411 674.5,678.5C 664.888,672.221 655.555,665.555 646.5,658.5C 651.767,649.176 656.934,639.843 662,630.5C 671.678,616.473 680.845,602.139 689.5,587.5C 687.813,586.432 686.146,586.599 684.5,588C 667.748,611.44 652.582,635.94 639,661.5C 639.466,664.1 640.966,666.266 643.5,668C 651.337,672.751 659.004,677.751 666.5,683C 655.259,690.21 644.426,698.043 634,706.5C 646.135,738.104 661.469,768.104 680,796.5C 691.087,813.008 702.42,829.341 714,845.5C 729.551,865.384 744.718,885.55 759.5,906C 749.991,906.17 740.658,906.67 731.5,907.5C 683.019,906.251 635.019,901.585 587.5,893.5C 588.239,893.631 588.906,893.464 589.5,893C 588.207,892.51 586.873,892.343 585.5,892.5C 583.996,884.428 583.33,876.261 583.5,868C 585.57,828.67 587.57,789.337 589.5,750C 589.613,711.969 581.779,675.802 566,641.5C 576.105,674.187 582.272,707.687 584.5,742C 581.618,780.556 578.118,819.056 574,857.5C 573.5,868.161 573.333,878.828 573.5,889.5C 571.585,889.216 569.919,889.549 568.5,890.5C 540.34,885.294 513.007,877.294 486.5,866.5C 485.614,865.675 485.281,864.675 485.5,863.5C 488.35,827.046 493.183,790.712 500,754.5C 505.82,723.542 515.487,693.875 529,665.5C 535.341,652.66 544.175,641.827 555.5,633C 580.408,621.382 606.074,611.715 632.5,604C 633.056,603.617 633.389,603.117 633.5,602.5C 652.329,597.668 670.662,591.668 688.5,584.5C 697.167,576.833 705.833,569.167 714.5,561.5C 714.047,562.458 713.381,563.292 712.5,564C 711.487,584.409 711.487,603.576 712.5,621.5C 713.398,629.511 714.398,637.511 715.5,645.5C 724.769,729.91 745.936,811.244 779,889.5C 786.156,871.852 792.989,854.185 799.5,836.5C 801.049,835.436 802.215,833.436 803,830.5C 813.758,799.006 822.925,766.673 830.5,733.5C 830.457,732.584 830.124,731.917 829.5,731.5C 835.572,704.07 840.238,676.403 843.5,648.5C 846.707,628.33 847.874,607.996 847,587.5C 846.044,581.257 843.711,575.59 840,570.5C 839.498,567.487 838.998,564.487 838.5,561.5C 838.5,558.833 838.5,556.167 838.5,553.5 Z"/></g>
<g><path style="opacity:1" fill="#1a6b7a" d="M 876.5,585.5 C 877.492,585.328 878.158,585.662 878.5,586.5C 878.062,586.435 877.728,586.601 877.5,587C 893.556,611.255 908.223,636.421 921.5,662.5C 919.631,665.113 917.297,667.279 914.5,669C 907.657,673.254 900.991,677.754 894.5,682.5C 905.617,690.442 916.617,698.609 927.5,707C 914.971,735.56 900.471,763.06 884,789.5C 856.901,829.855 827.734,868.688 796.5,906C 818.519,906.539 840.519,906.039 862.5,904.5C 865.686,904.502 868.686,904.835 871.5,905.5C 824.864,908.392 778.197,909.059 731.5,907.5C 740.658,906.67 749.991,906.17 759.5,906C 744.718,885.55 729.551,865.384 714,845.5C 702.42,829.341 691.087,813.008 680,796.5C 661.469,768.104 646.135,738.104 634,706.5C 644.426,698.043 655.259,690.21 666.5,683C 659.004,677.751 651.337,672.751 643.5,668C 640.966,666.266 639.466,664.1 639,661.5C 652.582,635.94 667.748,611.44 684.5,588C 686.146,586.599 687.813,586.432 689.5,587.5C 680.845,602.139 671.678,616.473 662,630.5C 656.934,639.843 651.767,649.176 646.5,658.5C 655.555,665.555 664.888,672.221 674.5,678.5C 680.692,674.411 687.026,670.911 693.5,668C 679.842,678.494 665.842,688.494 651.5,698C 647.136,701.368 643.136,705.034 639.5,709C 653.487,740.296 669.987,770.129 689,798.5C 712.877,832.911 738.21,866.245 765,898.5C 766.964,900.853 767.464,903.353 766.5,906C 773.524,906.831 780.524,906.664 787.5,905.5C 806.81,881.022 826.31,856.689 846,832.5C 855.579,819.676 864.912,806.676 874,793.5C 891.875,766.427 907.709,738.093 921.5,708.5C 904.643,695.142 887.643,681.975 870.5,669C 875.743,671.378 880.909,674.211 886,677.5C 895.764,671.406 905.264,664.906 914.5,658C 900.418,633.835 886.085,609.835 871.5,586C 873.381,586.096 875.047,585.929 876.5,585.5 Z"/></g>
<g><path style="opacity:1" fill="#1d6b7f" d="M 829.5,731.5 C 830.124,731.917 830.457,732.584 830.5,733.5C 822.925,766.673 813.758,799.006 803,830.5C 802.215,833.436 801.049,835.436 799.5,836.5C 811.212,801.983 821.212,766.983 829.5,731.5 Z"/></g>
<g><path style="opacity:1" fill="#f9ede3" d="M 715.5,645.5 C 733.147,661.314 751.814,675.814 771.5,689C 777.095,693.577 782.761,693.577 788.5,689C 807.836,676.826 826.169,663.326 843.5,648.5C 840.238,676.403 835.572,704.07 829.5,731.5C 821.212,766.983 811.212,801.983 799.5,836.5C 792.989,854.185 786.156,871.852 779,889.5C 745.936,811.244 724.769,729.91 715.5,645.5 Z"/></g>
<g><path style="opacity:1" fill="#deb08f" d="M 741.5,691.5 C 741.897,690.475 742.563,690.308 743.5,691C 754.251,699.376 765.917,706.21 778.5,711.5C 782.389,710.556 786.056,709.056 789.5,707C 799.186,701.332 808.853,695.998 818.5,691C 806.179,700.657 792.846,708.49 778.5,714.5C 775.567,714.534 772.9,713.701 770.5,712C 760.399,705.725 750.732,698.891 741.5,691.5 Z"/></g>
<g><path style="opacity:1" fill="#1a6c7b" d="M 587.5,893.5 C 581.102,892.887 574.769,891.887 568.5,890.5C 569.919,889.549 571.585,889.216 573.5,889.5C 573.333,878.828 573.5,868.161 574,857.5C 578.118,819.056 581.618,780.556 584.5,742C 582.272,707.687 576.105,674.187 566,641.5C 581.779,675.802 589.613,711.969 589.5,750C 587.57,789.337 585.57,828.67 583.5,868C 583.33,876.261 583.996,884.428 585.5,892.5C 586.873,892.343 588.207,892.51 589.5,893C 588.906,893.464 588.239,893.631 587.5,893.5 Z"/></g>
<g><path style="opacity:1" fill="#1a6c7b" d="M 989.5,890.5 C 985.21,891.425 980.876,892.091 976.5,892.5C 976.062,892.565 975.728,892.399 975.5,892C 976.191,890.933 976.691,889.766 977,888.5C 977.667,869.5 977.667,850.5 977,831.5C 975.192,807.362 974.026,783.195 973.5,759C 972.247,719.673 979.747,682.173 996,646.5C 991.463,664.345 987.129,682.345 983,700.5C 978.811,721.964 977.478,743.631 979,765.5C 983.885,807.119 987.385,848.786 989.5,890.5 Z"/></g>
</svg>
